<?xml version="1.0" encoding="UTF-8" standalone="no"?><svg width="123" height="28" viewBox="0 0 123 28" fill="none" xmlns="http://www.w3.org/2000/svg">
<path d="M38.3239 4.30012C37.8712 2.61528 36.5385 1.28249 34.8536 0.829848C31.8108 0 19.5643 0 19.5643 0C19.5643 0 7.31775 0.0251469 4.27497 0.854995C2.59013 1.30764 1.25735 2.64043 0.804701 4.32527C-5.99549e-08 7.36804 0 13.7302 0 13.7302C0 13.7302 -5.99549e-08 20.0924 0.829848 23.1603C1.28249 24.8451 2.61528 26.1779 4.30012 26.6306C7.3429 27.4604 19.5894 27.4604 19.5894 27.4604C19.5894 27.4604 31.836 27.4604 34.8788 26.6306C36.5636 26.1779 37.8964 24.8451 38.349 23.1603C39.1789 20.1175 39.1789 13.7302 39.1789 13.7302C39.1789 13.7302 39.1537 7.36804 38.3239 4.30012Z" fill="#FF0000"/>
<path d="M25.8259 13.7303L15.6665 7.84589V19.6146L25.8259 13.7303Z" fill="white"/>
<path d="M56.832 24.9708C56.0525 24.4428 55.4992 23.6381 55.1723 22.5316C54.8454 21.4251 54.6945 19.9666 54.6945 18.1309V15.6413C54.6945 13.8056 54.8706 12.2968 55.2478 11.1903C55.625 10.0587 56.2033 9.25403 57.008 8.75109C57.8127 8.24815 58.8438 7.97154 60.1263 7.97154C61.3836 7.97154 62.4146 8.22301 63.169 8.75109C63.9234 9.27917 64.5018 10.0839 64.8539 11.1903C65.2059 12.2968 65.382 13.7805 65.382 15.6162V18.1057C65.382 19.9415 65.2059 21.4 64.8539 22.5064C64.5018 23.6129 63.9486 24.4176 63.169 24.9457C62.3895 25.4486 61.3333 25.7253 60.0257 25.7253C58.6677 25.7504 57.6116 25.4738 56.832 24.9708V24.9708ZM61.1824 22.2801C61.4088 21.7269 61.5093 20.7965 61.5093 19.5391V14.1828C61.5093 12.9506 61.4088 12.0453 61.1824 11.4921C60.9561 10.9137 60.5789 10.6371 60.0508 10.6371C59.5227 10.6371 59.1707 10.9137 58.9444 11.4921C58.718 12.0705 58.6174 12.9506 58.6174 14.1828V19.5391C58.6174 20.7965 58.718 21.7269 58.9192 22.2801C59.1204 22.8334 59.4976 23.11 60.0508 23.11C60.5789 23.11 60.9561 22.8334 61.1824 22.2801V22.2801ZM116.304 18.1812V19.0613L116.405 21.5509C116.48 22.1041 116.606 22.5064 116.807 22.7579C117.009 23.0094 117.335 23.1351 117.763 23.1351C118.341 23.1351 118.744 22.9088 118.945 22.4562C119.171 22.0035 119.272 21.2491 119.297 20.2181L122.641 20.4193C122.667 20.5701 122.667 20.7713 122.667 21.0228C122.667 22.607 122.239 23.7889 121.359 24.5685C120.479 25.348 119.272 25.7504 117.688 25.7504C115.776 25.7504 114.444 25.1469 113.689 23.965C112.935 22.7831 112.532 20.9222 112.532 18.4326V15.3899C112.532 12.8249 112.935 10.9389 113.714 9.75697C114.519 8.57506 115.877 7.97154 117.788 7.97154C119.121 7.97154 120.127 8.223 120.831 8.7008C121.535 9.17859 122.038 9.93299 122.34 10.964C122.641 11.995 122.767 13.4033 122.767 15.2138V18.156H116.304V18.1812ZM116.807 10.9389C116.606 11.1903 116.48 11.5675 116.405 12.1208C116.33 12.674 116.304 13.5039 116.304 14.6355V15.8677H119.121V14.6355C119.121 13.529 119.096 12.6992 119.02 12.1208C118.945 11.5424 118.819 11.14 118.618 10.9137C118.417 10.6874 118.115 10.5617 117.713 10.5617C117.285 10.5868 116.983 10.7125 116.807 10.9389V10.9389ZM47.4271 17.8543L43.0264 1.96143H46.8738L48.4078 9.15344C48.8102 10.9389 49.0868 12.4477 49.2879 13.6799H49.3885C49.5143 12.7746 49.816 11.2909 50.2687 9.17859L51.8529 1.96143H55.7004L51.2494 17.8291V25.4486H47.4522V17.8543H47.4271Z" fill="#282828"/>
<path d="M77.8548 8.29846V25.4738H74.8372L74.5103 23.3615H74.4348C73.605 24.9457 72.3728 25.7504 70.7382 25.7504C69.6066 25.7504 68.7516 25.3732 68.2235 24.6188C67.6703 23.8644 67.4188 22.7076 67.4188 21.1234V8.29846H71.2914V20.8971C71.2914 21.6515 71.3669 22.2047 71.5429 22.5316C71.7189 22.8585 71.9956 23.0094 72.3728 23.0094C72.6997 23.0094 73.0266 22.9088 73.3283 22.7076C73.6301 22.5065 73.8564 22.2298 74.0073 21.9281V8.29846H77.8548Z" fill="#282828"/>
<path d="M97.6957 8.29846V25.4738H94.6781L94.3512 23.3615H94.2757C93.4459 24.9457 92.2137 25.7504 90.5792 25.7504C89.4475 25.7504 88.5926 25.3732 88.0645 24.6188C87.5112 23.8644 87.2598 22.7076 87.2598 21.1234V8.29846H91.1324V20.8971C91.1324 21.6515 91.2078 22.2047 91.3839 22.5316C91.5599 22.8585 91.8365 23.0094 92.2137 23.0094C92.5406 23.0094 92.8675 22.9088 93.1693 22.7076C93.4711 22.5065 93.6974 22.2298 93.8483 21.9281V8.29846H97.6957Z" fill="#282828"/>
<path d="M88.3663 5.07966H84.5188V25.4738H80.7468V5.07966H76.8993V1.96144H88.3411V5.07966H88.3663ZM110.47 11.0395C110.244 9.95816 109.867 9.1786 109.339 8.67566C108.811 8.19787 108.107 7.9464 107.176 7.9464C106.472 7.9464 105.793 8.14758 105.19 8.54993C104.561 8.95228 104.108 9.48036 103.756 10.1342H103.731V1.0813H100.009V25.4486H103.203L103.605 23.8141H103.681C103.983 24.3925 104.435 24.8451 105.014 25.1972C105.622 25.5307 106.306 25.7038 107 25.7001C108.308 25.7001 109.263 25.0966 109.892 23.8895C110.496 22.6825 110.822 20.7965 110.822 18.2566V15.5408C110.822 13.6296 110.697 12.1208 110.47 11.0395V11.0395ZM106.925 18.0555C106.925 19.3128 106.874 20.2935 106.774 20.9976C106.673 21.7018 106.497 22.2047 106.246 22.5065C105.994 22.8082 105.667 22.9591 105.265 22.9591C104.938 22.9591 104.661 22.8837 104.385 22.7328C104.108 22.5819 103.907 22.3556 103.731 22.0538V12.2968C103.857 11.819 104.083 11.4418 104.41 11.1401C104.737 10.8383 105.064 10.6874 105.441 10.6874C105.843 10.6874 106.145 10.8383 106.346 11.1401C106.573 11.4418 106.698 11.9699 106.799 12.6992C106.874 13.4284 106.925 14.4595 106.925 15.8174V18.0555Z" fill="#282828"/>
</svg>
